<svg xmlns="http://www.w3.org/2000/svg" viewBox="0 0 134.08 33.49"><defs><style>.cls-1{fill:#fff;}</style></defs><title>Ativo 6</title><g id="Camada_2" data-name="Camada 2"><g id="Layer_1" data-name="Layer 1"><path class="cls-1" d="M20.28,15.08V14.9a1.6,1.6,0,0,0-1.6-1.6H6.11a1.6,1.6,0,0,0-1.6,1.6v.18a1.6,1.6,0,0,0,1.6,1.6H18.68A1.6,1.6,0,0,0,20.28,15.08Zm0,14.64v-.18a1.6,1.6,0,0,0-1.6-1.6H6.11a1.6,1.6,0,0,0-1.6,1.6v.18a1.6,1.6,0,0,0,1.6,1.6H18.68A1.6,1.6,0,0,0,20.28,29.72Zm-4-7.35v-.12a1.63,1.63,0,0,0-1.63-1.63H1.63A1.63,1.63,0,0,0,0,22.25v.12A1.64,1.64,0,0,0,1.63,24H14.7A1.64,1.64,0,0,0,16.33,22.37ZM64.15,32.92H57V19.66a5.45,5.45,0,0,0-.83-3.39,2.66,2.66,0,0,0-2.22-1.06,4.3,4.3,0,0,0-2.81,1.17,6.66,6.66,0,0,0-2,3V32.92h-7.2V19.66a5.45,5.45,0,0,0-.83-3.39,2.66,2.66,0,0,0-2.22-1.06A4.32,4.32,0,0,0,36,16.36a6.47,6.47,0,0,0-2,3V32.92h-7.2V9.32h6.48v4A8.51,8.51,0,0,1,36.86,10a11.52,11.52,0,0,1,5.21-1.13,8.44,8.44,0,0,1,2.57.36,6.06,6.06,0,0,1,1.91,1,5.81,5.81,0,0,1,1.3,1.46,6.16,6.16,0,0,1,.74,1.78,9,9,0,0,1,3.51-3.4,10.47,10.47,0,0,1,5-1.19,7,7,0,0,1,3.62.83,6.06,6.06,0,0,1,2.14,2.16,8.48,8.48,0,0,1,1,2.9,20.35,20.35,0,0,1,.25,3.06Zm0,0H57V19.66a5.45,5.45,0,0,0-.83-3.39,2.66,2.66,0,0,0-2.22-1.06,4.3,4.3,0,0,0-2.81,1.17,6.66,6.66,0,0,0-2,3V32.92h-7.2V19.66a5.45,5.45,0,0,0-.83-3.39,2.66,2.66,0,0,0-2.22-1.06A4.32,4.32,0,0,0,36,16.36a6.47,6.47,0,0,0-2,3V32.92h-7.2V9.32h6.48v4A8.51,8.51,0,0,1,36.86,10a11.52,11.52,0,0,1,5.21-1.13,8.44,8.44,0,0,1,2.57.36,6.06,6.06,0,0,1,1.91,1,5.81,5.81,0,0,1,1.3,1.46,6.16,6.16,0,0,1,.74,1.78,9,9,0,0,1,3.51-3.4,10.47,10.47,0,0,1,5-1.19,7,7,0,0,1,3.62.83,6.06,6.06,0,0,1,2.14,2.16,8.48,8.48,0,0,1,1,2.9,20.35,20.35,0,0,1,.25,3.06Zm19.17.45a9.31,9.31,0,0,1-4.69-1.14A8.38,8.38,0,0,1,75.46,29v3.91h-6.3V.11h7.2V13.19A8.48,8.48,0,0,1,79.48,10a9.06,9.06,0,0,1,4.65-1.15,8.9,8.9,0,0,1,4.12,1,10,10,0,0,1,3.21,2.63,12.54,12.54,0,0,1,2.11,3.93,15.1,15.1,0,0,1,.77,4.84A13.64,13.64,0,0,1,93.51,26a11.92,11.92,0,0,1-2.32,3.87,10.6,10.6,0,0,1-3.51,2.56A10.27,10.27,0,0,1,83.32,33.37Zm-2-6.07a5.56,5.56,0,0,0,2.32-.47,5.28,5.28,0,0,0,1.79-1.28,5.57,5.57,0,0,0,1.15-1.91,6.87,6.87,0,0,0,.4-2.4,7.42,7.42,0,0,0-.38-2.41,6,6,0,0,0-1.1-2,5.44,5.44,0,0,0-1.68-1.35A4.65,4.65,0,0,0,81.66,15a4.77,4.77,0,0,0-3.12,1.17,7.56,7.56,0,0,0-2.18,2.92V24a6,6,0,0,0,2.11,2.41A5.14,5.14,0,0,0,81.3,27.3Zm24.32,5.77c-5.52,0-7.05-3.94-7.05-7.38V0h6.91V24.57A1.38,1.38,0,0,0,107,26.1h2.64v7Zm8.59-4.5,12-13.69H114.34v-5h19.47V14.2L122.86,27l11.22-.07v6.61H114.21Z"/></g></g></svg>